<svg xmlns="http://www.w3.org/2000/svg" viewBox="0 0 1180 420" role="img" aria-label="Greek Market logo">
  <defs>
    <linearGradient id="gm-gold" x1="0%" y1="0%" x2="100%" y2="100%">
      <stop offset="0%" stop-color="#ffe17b" />
      <stop offset="100%" stop-color="#f4c44d" />
    </linearGradient>
  </defs>
  <rect width="1180" height="420" fill="#ffffff" />
  <g transform="translate(88 92)">
    <rect x="0" y="0" width="188" height="188" fill="none" stroke="#0d2b63" stroke-width="14" />
    <path
      d="M34 84c0-15 11-26 26-26h68c15 0 26 11 26 26"
      fill="none"
      stroke="url(#gm-gold)"
      stroke-linecap="round"
      stroke-width="16"
    />
    <path
      d="M47 74h99"
      fill="none"
      stroke="url(#gm-gold)"
      stroke-linecap="round"
      stroke-width="14"
    />
    <path
      d="M34 85c-10 0-18 8-18 18s8 18 18 18"
      fill="none"
      stroke="url(#gm-gold)"
      stroke-linecap="round"
      stroke-width="14"
    />
    <path
      d="M154 85c10 0 18 8 18 18s-8 18-18 18"
      fill="none"
      stroke="url(#gm-gold)"
      stroke-linecap="round"
      stroke-width="14"
    />
    <rect x="48" y="116" width="96" height="14" rx="7" fill="url(#gm-gold)" />
    <rect x="60" y="130" width="22" height="58" rx="8" fill="url(#gm-gold)" />
    <rect x="89" y="130" width="22" height="58" rx="8" fill="url(#gm-gold)" />
    <rect x="118" y="130" width="22" height="58" rx="8" fill="url(#gm-gold)" />
  </g>
  <g fill="#0d2b63" font-family="Aptos, Segoe UI, Arial, sans-serif" font-weight="800">
    <text x="360" y="196" font-size="112" letter-spacing="2">GREEK</text>
    <text x="360" y="324" font-size="112" letter-spacing="2">MARKET</text>
  </g>
</svg>
